<svg width="114" height="111" viewBox="0 0 114 111" fill="none" xmlns="http://www.w3.org/2000/svg">
<path d="M20.1643 14.7919H54.302C56.378 14.7919 57.4203 17.2405 55.9473 18.666L21.801 51.7465C20.3279 53.172 17.8212 52.1574 17.8212 50.1365V17.0644C17.8298 15.8066 18.8721 14.7919 20.1643 14.7919Z" stroke="white" stroke-width="2" stroke-miterlimit="10"/>
<path d="M95.4861 14.7919H61.3484C59.2724 14.7919 58.2301 17.2405 59.7031 18.666L93.8408 51.7465C95.3138 53.172 97.8206 52.1574 97.8206 50.1365V17.0644C97.8119 15.8066 96.7696 14.7919 95.4861 14.7919Z" stroke="white" stroke-width="2" stroke-miterlimit="10"/>
<path d="M20.1643 92.7764H54.302C56.378 92.7764 57.4203 90.3278 55.9473 88.9023L21.801 55.8218C20.3279 54.3963 17.8212 55.4109 17.8212 57.4318V90.5123C17.8298 91.7617 18.8721 92.7764 20.1643 92.7764Z" stroke="white" stroke-width="2" stroke-miterlimit="10"/>
<path d="M95.4861 92.7764H61.3484C59.2724 92.7764 58.2301 90.3278 59.7031 88.9023L93.8408 55.8218C95.3138 54.3963 97.8206 55.4109 97.8206 57.4318V90.5123C97.8119 91.7617 96.7696 92.7764 95.4861 92.7764Z" stroke="white" stroke-width="2" stroke-miterlimit="10"/>
<path d="M1.67836 53.5074L25.8237 30.0115C27.2968 28.5776 29.8121 29.6006 29.8035 31.6215L29.6829 78.5128C29.6742 80.5337 27.1675 81.5399 25.7031 80.1144L1.67836 56.7191C0.773879 55.8302 0.773879 54.3963 1.67836 53.5074Z" stroke="white" stroke-width="2" stroke-miterlimit="10"/>
<path d="M54.9395 1.66035L30.8027 25.1647C29.3297 26.5986 30.3806 29.0472 32.4566 29.0388L80.6268 28.9298C82.7028 28.9214 83.7365 26.4812 82.2721 25.0557L58.2387 1.66035C57.3256 0.779883 55.8526 0.779883 54.9395 1.66035Z" stroke="white" stroke-width="2" stroke-miterlimit="10"/>
<path d="M58.3248 108.658L82.4616 85.1624C83.9346 83.7285 82.8837 81.28 80.8077 81.2884L32.6375 81.3974C30.5615 81.4057 29.5278 83.8459 30.9922 85.2714L55.017 108.658C55.9387 109.539 57.4203 109.539 58.3248 108.658Z" stroke="white" stroke-width="2" stroke-miterlimit="10"/>
<path d="M111.595 56.8029L87.4578 80.2989C85.9848 81.7328 83.4694 80.7098 83.478 78.6889L83.59 31.7976C83.5986 29.7767 86.1054 28.7704 87.5698 30.196L111.595 53.5829C112.499 54.4802 112.499 55.9224 111.595 56.8029Z" stroke="white" stroke-width="2" stroke-miterlimit="10"/>
</svg>
